<mxfile host="app.diagrams.net" modified="2021-05-26T03:21:28.644Z" agent="5.0 (Macintosh; Intel Mac OS X 10_15_6) AppleWebKit/605.1.15 (KHTML, like Gecko) Version/14.0.2 Safari/605.1.15" etag="Fzu0sCCEW-q0ipq3wCF_" version="14.7.1" type="github">
  <diagram id="YghK0WVX1SOP_1ZWTKFZ" name="Page-1">
    <mxGraphModel dx="1298" dy="840" grid="1" gridSize="10" guides="1" tooltips="1" connect="1" arrows="1" fold="1" page="1" pageScale="1" pageWidth="827" pageHeight="1169" math="0" shadow="0">
      <root>
        <mxCell id="0" />
        <mxCell id="1" parent="0" />
        <mxCell id="9bM0xHO0tnvuhNxM8Gsm-3" value="" style="edgeStyle=orthogonalEdgeStyle;rounded=0;orthogonalLoop=1;jettySize=auto;html=1;" edge="1" parent="1" source="9bM0xHO0tnvuhNxM8Gsm-1" target="9bM0xHO0tnvuhNxM8Gsm-2">
          <mxGeometry relative="1" as="geometry" />
        </mxCell>
        <mxCell id="9bM0xHO0tnvuhNxM8Gsm-1" value="MTARenderTarget" style="whiteSpace=wrap;html=1;" vertex="1" parent="1">
          <mxGeometry x="140" y="80" width="120" height="60" as="geometry" />
        </mxCell>
        <mxCell id="9bM0xHO0tnvuhNxM8Gsm-7" value="" style="edgeStyle=orthogonalEdgeStyle;rounded=0;orthogonalLoop=1;jettySize=auto;html=1;" edge="1" parent="1" source="9bM0xHO0tnvuhNxM8Gsm-2" target="9bM0xHO0tnvuhNxM8Gsm-4">
          <mxGeometry relative="1" as="geometry" />
        </mxCell>
        <mxCell id="9bM0xHO0tnvuhNxM8Gsm-8" value="" style="edgeStyle=orthogonalEdgeStyle;rounded=0;orthogonalLoop=1;jettySize=auto;html=1;entryX=0;entryY=0.5;entryDx=0;entryDy=0;" edge="1" parent="1" source="9bM0xHO0tnvuhNxM8Gsm-2" target="9bM0xHO0tnvuhNxM8Gsm-6">
          <mxGeometry relative="1" as="geometry" />
        </mxCell>
        <mxCell id="9bM0xHO0tnvuhNxM8Gsm-10" style="edgeStyle=orthogonalEdgeStyle;rounded=0;orthogonalLoop=1;jettySize=auto;html=1;entryX=0;entryY=0.5;entryDx=0;entryDy=0;" edge="1" parent="1" source="9bM0xHO0tnvuhNxM8Gsm-2" target="9bM0xHO0tnvuhNxM8Gsm-9">
          <mxGeometry relative="1" as="geometry" />
        </mxCell>
        <mxCell id="9bM0xHO0tnvuhNxM8Gsm-2" value="scn" style="whiteSpace=wrap;html=1;" vertex="1" parent="1">
          <mxGeometry x="320" y="90" width="70" height="40" as="geometry" />
        </mxCell>
        <mxCell id="9bM0xHO0tnvuhNxM8Gsm-4" value="env" style="whiteSpace=wrap;html=1;" vertex="1" parent="1">
          <mxGeometry x="470" y="50" width="70" height="40" as="geometry" />
        </mxCell>
        <mxCell id="9bM0xHO0tnvuhNxM8Gsm-6" value="cam" style="whiteSpace=wrap;html=1;" vertex="1" parent="1">
          <mxGeometry x="470" y="120" width="70" height="40" as="geometry" />
        </mxCell>
        <mxCell id="9bM0xHO0tnvuhNxM8Gsm-9" value="obj" style="whiteSpace=wrap;html=1;" vertex="1" parent="1">
          <mxGeometry x="470" y="180" width="70" height="40" as="geometry" />
        </mxCell>
      </root>
    </mxGraphModel>
  </diagram>
</mxfile>
